# xmcd
#
# Track frame offsets: 
#        150
#        24950
#        44585
#        60860
#        79814
#        98203
#        127338
#        147194
#        170925
#        191833
#
# Disc length: 2897 seconds
#
# Revision: 0
# Processed by: cddbd v1.5.2PL0 Copyright (c) Steve Scherf et al.
# Submitted via: ExactAudioCopy v1.0b3
#
DISCID=8e0b4f0a
DTITLE=Yen Khoa - Loi To Tinh De Thuong
DYEAR=2001
DGENRE=
TTITLE0=Nam muoi bay tuoi
TTITLE1=Loi to tinh de thuong
TTITLE2=Lan dau noi doi
TTITLE3=Nang yeu hoa tim
TTITLE4=De thuong
TTITLE5=Tra loi thu anh
TTITLE6=Chuyen tinh yeu
TTITLE7=Noi niem
TTITLE8=Lam sao quen
TTITLE9=Dem cuoi
EXTD=
EXTT0=
EXTT1=
EXTT2=
EXTT3=
EXTT4=
EXTT5=
EXTT6=
EXTT7=
EXTT8=
EXTT9=
PLAYORDER=
